<?xml version="1.0" encoding="UTF-8" standalone="no"?>
<svg
   width="20mm"
   height="20mm"
   viewBox="0 0 20 20"
   version="1.1"
   id="svg9327"
   sodipodi:docname="color_mode_log.svg"
   inkscape:version="1.1.2 (0a00cf5339, 2022-02-04)"
   xmlns:inkscape="http://www.inkscape.org/namespaces/inkscape"
   xmlns:sodipodi="http://sodipodi.sourceforge.net/DTD/sodipodi-0.dtd"
   xmlns="http://www.w3.org/2000/svg"
   xmlns:svg="http://www.w3.org/2000/svg"
   xmlns:rdf="http://www.w3.org/1999/02/22-rdf-syntax-ns#"
   xmlns:cc="http://creativecommons.org/ns#"
   xmlns:dc="http://purl.org/dc/elements/1.1/">
  <sodipodi:namedview
     id="namedview1508"
     pagecolor="#ffffff"
     bordercolor="#666666"
     borderopacity="1.0"
     inkscape:pageshadow="2"
     inkscape:pageopacity="0.0"
     inkscape:pagecheckerboard="0"
     inkscape:document-units="mm"
     showgrid="false"
     inkscape:zoom="3.8399949"
     inkscape:cx="37.630258"
     inkscape:cy="37.760466"
     inkscape:window-width="1280"
     inkscape:window-height="661"
     inkscape:window-x="177"
     inkscape:window-y="311"
     inkscape:window-maximized="0"
     inkscape:current-layer="svg9327" />
  <defs
     id="defs9321">
    <linearGradient
       id="linearGradient10596">
      <stop
         id="stop10594"
         offset="0"
         style="stop-color:#ffffff;stop-opacity:1;" />
    </linearGradient>
  </defs>
  <metadata
     id="metadata9324">
    <rdf:RDF>
      <cc:Work
         rdf:about="">
        <dc:format>image/svg+xml</dc:format>
        <dc:type
           rdf:resource="http://purl.org/dc/dcmitype/StillImage" />
      </cc:Work>
    </rdf:RDF>
  </metadata>
  <g
     id="use1107"
     style="fill:#000000;fill-opacity:1;stroke-width:0.267548"
     transform="matrix(1.3185591,0,0,1.3185591,0.64440085,13.552063)">
    <path
       style="stroke:none;stroke-width:0.267548"
       d="m 1.9375,-7.5625 -1.578125,0.109375 v 0.34375 c 0.765625,0 0.84375,0.078125 0.84375,0.609375 v 5.671875 c 0,0.484375 -0.109375,0.484375 -0.84375,0.484375 V 0 C 0.71875,-0.015625 1.296875,-0.03125 1.578125,-0.03125 1.84375,-0.03125 2.375,-0.015625 2.78125,0 v -0.34375 c -0.734375,0 -0.84375,0 -0.84375,-0.484375 z m 0,0"
       id="path1385" />
  </g>
  <g
     id="use1109"
     style="fill:#000000;fill-opacity:1;stroke-width:0.267548"
     transform="matrix(1.3185591,0,0,1.3185591,4.6403649,13.552063)">
    <path
       style="stroke:none;stroke-width:0.267548"
       d="m 5.140625,-2.328125 c 0,-1.40625 -1.09375,-2.5625 -2.421875,-2.5625 -1.359375,0 -2.40625,1.1875 -2.40625,2.5625 0,1.40625 1.125,2.453125 2.40625,2.453125 1.3125,0 2.421875,-1.078125 2.421875,-2.453125 z M 2.71875,-0.15625 c -0.46875,0 -0.9375,-0.21875 -1.234375,-0.734375 -0.28125,-0.46875 -0.28125,-1.140625 -0.28125,-1.53125 0,-0.421875 0,-1.015625 0.265625,-1.5 0.296875,-0.5 0.8125,-0.71875 1.25,-0.71875 0.484375,0 0.953125,0.234375 1.234375,0.703125 0.28125,0.46875 0.28125,1.109375 0.28125,1.515625 0,0.390625 0,0.984375 -0.25,1.46875 C 3.75,-0.46875 3.265625,-0.15625 2.71875,-0.15625 Z m 0,0"
       id="path1389" />
  </g>
  <g
     id="use1111"
     style="fill:#000000;fill-opacity:1;stroke-width:0.267548"
     transform="matrix(1.3185591,0,0,1.3185591,11.832504,13.552063)">
    <path
       style="stroke:none;stroke-width:0.267548"
       d="m 2.421875,-1.875 c -0.953125,0 -0.953125,-1.09375 -0.953125,-1.34375 0,-0.296875 0.015625,-0.640625 0.171875,-0.921875 0.09375,-0.125 0.34375,-0.421875 0.78125,-0.421875 0.953125,0 0.953125,1.078125 0.953125,1.328125 0,0.296875 -0.015625,0.65625 -0.171875,0.921875 -0.09375,0.125 -0.34375,0.4375 -0.78125,0.4375 z M 1.15625,-1.453125 c 0,-0.046875 0,-0.296875 0.1875,-0.515625 0.421875,0.3125 0.875,0.34375 1.078125,0.34375 1.015625,0 1.765625,-0.75 1.765625,-1.59375 0,-0.40625 -0.171875,-0.8125 -0.453125,-1.0625 0.40625,-0.359375 0.796875,-0.421875 0.984375,-0.421875 0.03125,0 0.078125,0 0.109375,0.015625 -0.109375,0.046875 -0.171875,0.15625 -0.171875,0.296875 0,0.1875 0.140625,0.3125 0.3125,0.3125 0.109375,0 0.328125,-0.078125 0.328125,-0.328125 0,-0.1875 -0.140625,-0.53125 -0.5625,-0.53125 -0.21875,0 -0.703125,0.0625 -1.15625,0.515625 C 3.125,-4.78125 2.65625,-4.828125 2.421875,-4.828125 c -1.015625,0 -1.765625,0.765625 -1.765625,1.59375 0,0.484375 0.234375,0.90625 0.515625,1.125 -0.140625,0.171875 -0.34375,0.53125 -0.34375,0.90625 0,0.34375 0.140625,0.75 0.484375,0.96875 -0.65625,0.1875 -1,0.65625 -1,1.09375 C 0.3125,1.640625 1.390625,2.25 2.71875,2.25 4,2.25 5.140625,1.6875 5.140625,0.84375 c 0,-0.390625 -0.15625,-0.9375 -0.71875,-1.25 -0.578125,-0.296875 -1.203125,-0.296875 -1.875,-0.296875 -0.265625,0 -0.734375,0 -0.8125,-0.015625 C 1.390625,-0.765625 1.15625,-1.09375 1.15625,-1.453125 Z M 2.71875,2 C 1.625,2 0.875,1.4375 0.875,0.859375 c 0,-0.5 0.40625,-0.90625 0.890625,-0.9375 H 2.40625 c 0.9375,0 2.15625,0 2.15625,0.9375 C 4.5625,1.453125 3.796875,2 2.71875,2 Z m 0,0"
       id="path1393" />
  </g>
</svg>
