<?xml version="1.0" encoding="UTF-8" standalone="no"?>
<svg
   width="20mm"
   height="20mm"
   viewBox="0 0 20 20"
   version="1.1"
   id="svg9327"
   sodipodi:docname="color_mode_linear.svg"
   inkscape:version="1.1.2 (0a00cf5339, 2022-02-04)"
   xmlns:inkscape="http://www.inkscape.org/namespaces/inkscape"
   xmlns:sodipodi="http://sodipodi.sourceforge.net/DTD/sodipodi-0.dtd"
   xmlns="http://www.w3.org/2000/svg"
   xmlns:svg="http://www.w3.org/2000/svg"
   xmlns:rdf="http://www.w3.org/1999/02/22-rdf-syntax-ns#"
   xmlns:cc="http://creativecommons.org/ns#"
   xmlns:dc="http://purl.org/dc/elements/1.1/">
  <sodipodi:namedview
     id="namedview2328"
     pagecolor="#ffffff"
     bordercolor="#666666"
     borderopacity="1.0"
     inkscape:pageshadow="2"
     inkscape:pageopacity="0.0"
     inkscape:pagecheckerboard="0"
     inkscape:document-units="mm"
     showgrid="false"
     inkscape:zoom="5.4305729"
     inkscape:cx="37.841311"
     inkscape:cy="35.907814"
     inkscape:window-width="1280"
     inkscape:window-height="661"
     inkscape:window-x="342"
     inkscape:window-y="201"
     inkscape:window-maximized="0"
     inkscape:current-layer="svg9327" />
  <defs
     id="defs9321">
    <linearGradient
       id="linearGradient10596">
      <stop
         id="stop10594"
         offset="0"
         style="stop-color:#ffffff;stop-opacity:1;" />
    </linearGradient>
  </defs>
  <metadata
     id="metadata9324">
    <rdf:RDF>
      <cc:Work
         rdf:about="">
        <dc:format>image/svg+xml</dc:format>
        <dc:type
           rdf:resource="http://purl.org/dc/dcmitype/StillImage" />
      </cc:Work>
    </rdf:RDF>
  </metadata>
  <g
     id="use1089"
     style="fill:#000000;fill-opacity:1;stroke-width:0.139692"
     transform="matrix(2.5254025,0,0,2.5254025,2.2292362,15.746886)">
    <path
       style="stroke:none;stroke-width:0.139692"
       d="m 3.640625,-3.296875 c 0.0625,-0.28125 0.3125,-1.28125 1.078125,-1.28125 0.0625,0 0.3125,0 0.546875,0.140625 C 4.96875,-4.390625 4.75,-4.109375 4.75,-3.84375 c 0,0.171875 0.109375,0.375 0.40625,0.375 0.25,0 0.59375,-0.203125 0.59375,-0.625 0,-0.578125 -0.640625,-0.734375 -1.015625,-0.734375 -0.640625,0 -1.015625,0.578125 -1.140625,0.84375 -0.28125,-0.734375 -0.875,-0.84375 -1.1875,-0.84375 -1.125,0 -1.75,1.421875 -1.75,1.6875 0,0.109375 0.109375,0.109375 0.125,0.109375 0.09375,0 0.125,-0.015625 0.140625,-0.125 0.375,-1.15625 1.09375,-1.421875 1.46875,-1.421875 0.203125,0 0.59375,0.09375 0.59375,0.734375 0,0.328125 -0.1875,1.0625 -0.59375,2.59375 -0.171875,0.671875 -0.5625,1.125 -1.03125,1.125 -0.078125,0 -0.328125,0 -0.546875,-0.140625 0.265625,-0.046875 0.5,-0.28125 0.5,-0.578125 0,-0.296875 -0.234375,-0.390625 -0.390625,-0.390625 -0.328125,0 -0.609375,0.28125 -0.609375,0.640625 0,0.5 0.546875,0.71875 1.03125,0.71875 0.71875,0 1.109375,-0.765625 1.140625,-0.828125 C 2.625,-0.3125 3.015625,0.125 3.671875,0.125 c 1.109375,0 1.734375,-1.40625 1.734375,-1.6875 0,-0.109375 -0.09375,-0.109375 -0.125,-0.109375 -0.09375,0 -0.125,0.046875 -0.140625,0.125 C 4.78125,-0.375 4.03125,-0.125 3.6875,-0.125 c -0.421875,0 -0.59375,-0.34375 -0.59375,-0.71875 0,-0.234375 0.0625,-0.46875 0.171875,-0.953125 z m 0,0"
       id="path1369" />
  </g>
</svg>
