<?xml version="1.0" encoding="UTF-8" standalone="no"?>
<svg
   id="svg9327"
   version="1.1"
   viewBox="0 0 20 20"
   height="20mm"
   width="20mm"
   sodipodi:docname="color_mode_root.svg"
   inkscape:version="1.1.2 (0a00cf5339, 2022-02-04)"
   xmlns:inkscape="http://www.inkscape.org/namespaces/inkscape"
   xmlns:sodipodi="http://sodipodi.sourceforge.net/DTD/sodipodi-0.dtd"
   xmlns="http://www.w3.org/2000/svg"
   xmlns:svg="http://www.w3.org/2000/svg"
   xmlns:rdf="http://www.w3.org/1999/02/22-rdf-syntax-ns#"
   xmlns:cc="http://creativecommons.org/ns#"
   xmlns:dc="http://purl.org/dc/elements/1.1/">
  <sodipodi:namedview
     id="namedview1948"
     pagecolor="#ffffff"
     bordercolor="#666666"
     borderopacity="1.0"
     inkscape:pageshadow="2"
     inkscape:pageopacity="0.0"
     inkscape:pagecheckerboard="0"
     inkscape:document-units="mm"
     showgrid="false"
     inkscape:zoom="5.4305729"
     inkscape:cx="37.841311"
     inkscape:cy="37.74924"
     inkscape:window-width="1280"
     inkscape:window-height="661"
     inkscape:window-x="411"
     inkscape:window-y="69"
     inkscape:window-maximized="0"
     inkscape:current-layer="svg9327" />
  <defs
     id="defs9321">
    <linearGradient
       id="linearGradient10596">
      <stop
         id="stop10594"
         offset="0"
         style="stop-color:#ffffff;stop-opacity:1;" />
    </linearGradient>
  </defs>
  <metadata
     id="metadata9324">
    <rdf:RDF>
      <cc:Work
         rdf:about="">
        <dc:format>image/svg+xml</dc:format>
        <dc:type
           rdf:resource="http://purl.org/dc/dcmitype/StillImage" />
      </cc:Work>
    </rdf:RDF>
  </metadata>
  <g
     id="use1093"
     style="fill:#000000;fill-opacity:1;stroke-width:0.307841"
     transform="matrix(1.1459725,0,0,1.1459725,2.3209903,9.1414474)">
    <path
       style="stroke:none;stroke-width:0.307841"
       d="M 1.75,-2.078125 C 1.71875,-2.53125 1.296875,-2.640625 1.078125,-2.640625 0.84375,-2.640625 0.6875,-2.5 0.59375,-2.3125 0.4375,-2.0625 0.359375,-1.75 0.359375,-1.71875 c 0,0.0625 0.0625,0.078125 0.109375,0.078125 0.09375,0 0.109375,-0.03125 0.140625,-0.125 C 0.71875,-2.25 0.875,-2.4375 1.0625,-2.4375 c 0.21875,0 0.21875,0.234375 0.21875,0.296875 0,0.09375 -0.0625,0.34375 -0.109375,0.5 C 1.125,-1.46875 1.078125,-1.234375 1.046875,-1.09375 1,-0.953125 0.96875,-0.796875 0.921875,-0.640625 0.875,-0.46875 0.8125,-0.171875 0.8125,-0.140625 0.8125,0 0.90625,0.0625 1.015625,0.0625 c 0.109375,0 0.21875,-0.078125 0.265625,-0.171875 0,-0.03125 0.0625,-0.234375 0.09375,-0.359375 L 1.5,-1 c 0.046875,-0.15625 0.0625,-0.265625 0.109375,-0.40625 0.046875,-0.203125 0.25,-0.515625 0.484375,-0.734375 0.109375,-0.125 0.375,-0.296875 0.6875,-0.296875 0.390625,0 0.390625,0.296875 0.390625,0.421875 0,0.34375 -0.25,0.984375 -0.359375,1.25 -0.046875,0.109375 -0.078125,0.203125 -0.078125,0.3125 0,0.296875 0.265625,0.515625 0.59375,0.515625 0.609375,0 0.90625,-0.796875 0.90625,-0.921875 0,-0.015625 0,-0.09375 -0.109375,-0.09375 -0.078125,0 -0.09375,0.03125 -0.125,0.15625 -0.09375,0.3125 -0.34375,0.65625 -0.65625,0.65625 -0.109375,0 -0.15625,-0.09375 -0.15625,-0.21875 0,-0.109375 0.046875,-0.21875 0.09375,-0.34375 C 3.375,-0.9375 3.640625,-1.609375 3.640625,-1.9375 c 0,-0.5 -0.375,-0.703125 -0.828125,-0.703125 -0.296875,0 -0.671875,0.09375 -1.0625,0.5625 z m 0,0"
       id="path1373" />
  </g>
  <g
     id="use1097"
     style="fill:#000000;fill-opacity:1;stroke-width:0.307841"
     transform="matrix(1.1459725,0,0,1.1459725,0.64786276,4.3421191)">
    <path
       style="stroke:none;stroke-width:0.307841"
       d="m 4.25,9.328125 -1.921875,-4.25 C 2.25,4.90625 2.1875,4.90625 2.15625,4.90625 c 0,0 -0.0625,0 -0.1875,0.09375 L 0.9375,5.78125 C 0.796875,5.890625 0.796875,5.921875 0.796875,5.953125 c 0,0.0625 0.03125,0.125 0.109375,0.125 0.0625,0 0.25,-0.15625 0.375,-0.25 C 1.34375,5.78125 1.5,5.65625 1.625,5.578125 l 2.15625,4.71875 C 3.84375,10.46875 3.90625,10.46875 4,10.46875 c 0.171875,0 0.203125,-0.0625 0.28125,-0.21875 L 9.234375,0 c 0.0625,-0.15625 0.0625,-0.203125 0.0625,-0.21875 0,-0.109375 -0.078125,-0.21875 -0.21875,-0.21875 -0.078125,0 -0.15625,0.0625 -0.25,0.234375 z m 0,0"
       id="path1377" />
  </g>
  <path
     style="color:#000000;fill:#000000;stroke-width:0.999999;stroke-miterlimit:10;-inkscape-stroke:none"
     d="m 11.066186,3.842339 v 0.5012192 h 7.144 V 3.842339 Z"
     id="path1101" />
  <g
     id="use1103"
     style="fill:#000000;fill-opacity:1;stroke-width:0.307841"
     transform="matrix(1.1459725,0,0,1.1459725,11.065904,13.346028)">
    <path
       style="stroke:none;stroke-width:0.307841"
       d="m 3.640625,-3.296875 c 0.0625,-0.28125 0.3125,-1.28125 1.078125,-1.28125 0.0625,0 0.3125,0 0.546875,0.140625 C 4.96875,-4.390625 4.75,-4.109375 4.75,-3.84375 c 0,0.171875 0.109375,0.375 0.40625,0.375 0.25,0 0.59375,-0.203125 0.59375,-0.625 0,-0.578125 -0.640625,-0.734375 -1.015625,-0.734375 -0.640625,0 -1.015625,0.578125 -1.140625,0.84375 -0.28125,-0.734375 -0.875,-0.84375 -1.1875,-0.84375 -1.125,0 -1.75,1.421875 -1.75,1.6875 0,0.109375 0.109375,0.109375 0.125,0.109375 0.09375,0 0.125,-0.015625 0.140625,-0.125 0.375,-1.15625 1.09375,-1.421875 1.46875,-1.421875 0.203125,0 0.59375,0.09375 0.59375,0.734375 0,0.328125 -0.1875,1.0625 -0.59375,2.59375 -0.171875,0.671875 -0.5625,1.125 -1.03125,1.125 -0.078125,0 -0.328125,0 -0.546875,-0.140625 0.265625,-0.046875 0.5,-0.28125 0.5,-0.578125 0,-0.296875 -0.234375,-0.390625 -0.390625,-0.390625 -0.328125,0 -0.609375,0.28125 -0.609375,0.640625 0,0.5 0.546875,0.71875 1.03125,0.71875 0.71875,0 1.109375,-0.765625 1.140625,-0.828125 C 2.625,-0.3125 3.015625,0.125 3.671875,0.125 c 1.109375,0 1.734375,-1.40625 1.734375,-1.6875 0,-0.109375 -0.09375,-0.109375 -0.125,-0.109375 -0.09375,0 -0.125,0.046875 -0.140625,0.125 C 4.78125,-0.375 4.03125,-0.125 3.6875,-0.125 c -0.421875,0 -0.59375,-0.34375 -0.59375,-0.71875 0,-0.234375 0.0625,-0.46875 0.171875,-0.953125 z m 0,0"
       id="path1381" />
  </g>
</svg>
