<?xml version="1.0" encoding="UTF-8" standalone="no"?>
<svg
   xmlns:dc="http://purl.org/dc/elements/1.1/"
   xmlns:cc="http://creativecommons.org/ns#"
   xmlns:rdf="http://www.w3.org/1999/02/22-rdf-syntax-ns#"
   xmlns:svg="http://www.w3.org/2000/svg"
   xmlns="http://www.w3.org/2000/svg"
   width="20mm"
   height="20mm"
   viewBox="0 0 20 20"
   version="1.1"
   id="svg9327">
  <defs
     id="defs9321" />
  <metadata
     id="metadata9324">
    <rdf:RDF>
      <cc:Work
         rdf:about="">
        <dc:format>image/svg+xml</dc:format>
        <dc:type
           rdf:resource="http://purl.org/dc/dcmitype/StillImage" />
        <dc:title></dc:title>
      </cc:Work>
    </rdf:RDF>
  </metadata>
  <rect
     y="1.4838438e-06"
     x="3.4524194e-18"
     height="20"
     width="20"
     id="rect4491"
     style="opacity:1;fill:#ffffff;fill-opacity:1;stroke:none;stroke-width:0.26458332;stroke-miterlimit:4;stroke-dasharray:none;stroke-dashoffset:0;stroke-opacity:1" />
  <g
     id="text7946"
     aria-label="const."
     transform="matrix(2.3904205,0,0,2.3904205,-271.85061,-384.92523)">
    <path
       id="path7966"
       d="m 115.10567,164.95097 v 0.23703 q -0.10749,-0.0593 -0.21635,-0.0882 -0.10749,-0.0303 -0.21773,-0.0303 -0.24667,0 -0.3831,0.1571 -0.13642,0.15572 -0.13642,0.43822 0,0.28249 0.13642,0.43959 0.13643,0.15572 0.3831,0.15572 0.11024,0 0.21773,-0.0289 0.10886,-0.0303 0.21635,-0.0896 v 0.23426 q -0.10611,0.0496 -0.22048,0.0744 -0.113,0.0248 -0.24116,0.0248 -0.34864,0 -0.55397,-0.21911 -0.20533,-0.2191 -0.20533,-0.59117 0,-0.37759 0.20671,-0.59394 0.20808,-0.21635 0.56913,-0.21635 0.11713,0 0.22875,0.0248 0.11162,0.0234 0.21635,0.0717 z" />
    <path
       id="path7968"
       d="m 116.14747,165.06948 q -0.20395,0 -0.32246,0.15986 -0.11851,0.15847 -0.11851,0.43546 0,0.27698 0.11713,0.43683 0.11851,0.15848 0.32384,0.15848 0.20257,0 0.32108,-0.15985 0.11851,-0.15986 0.11851,-0.43546 0,-0.27423 -0.11851,-0.43409 -0.11851,-0.16123 -0.32108,-0.16123 z m 0,-0.21497 q 0.33073,0 0.51952,0.21497 0.18879,0.21498 0.18879,0.59532 0,0.37896 -0.18879,0.59531 -0.18879,0.21497 -0.51952,0.21497 -0.33211,0 -0.5209,-0.21497 -0.18741,-0.21635 -0.18741,-0.59531 0,-0.38034 0.18741,-0.59532 0.18879,-0.21497 0.5209,-0.21497 z" />
    <path
       id="path7970"
       d="m 118.55766,165.50357 v 0.93155 h -0.25356 v -0.92329 q 0,-0.2191 -0.0854,-0.32797 -0.0854,-0.10886 -0.25632,-0.10886 -0.20532,0 -0.32383,0.13091 -0.11852,0.13091 -0.11852,0.35691 v 0.8723 h -0.25493 v -1.5434 h 0.25493 v 0.23978 q 0.0909,-0.13919 0.2136,-0.20809 0.12402,-0.0689 0.28525,-0.0689 0.26597,0 0.40239,0.16536 0.13643,0.16399 0.13643,0.4837 z" />
    <path
       id="path7972"
       d="m 120.05007,164.93719 v 0.23978 q -0.10748,-0.0551 -0.22324,-0.0827 -0.11575,-0.0276 -0.23978,-0.0276 -0.18879,0 -0.28387,0.0579 -0.0937,0.0579 -0.0937,0.17363 0,0.0882 0.0675,0.13918 0.0675,0.0496 0.27148,0.0951 l 0.0868,0.0193 q 0.2701,0.0579 0.3831,0.16398 0.11437,0.10473 0.11437,0.29353 0,0.21497 -0.17087,0.34037 -0.1695,0.1254 -0.46716,0.1254 -0.12402,0 -0.25907,-0.0248 -0.13367,-0.0234 -0.2825,-0.0717 v -0.26183 q 0.14056,0.073 0.27699,0.11025 0.13643,0.0358 0.2701,0.0358 0.17914,0 0.2756,-0.0606 0.0965,-0.062 0.0965,-0.17363 0,-0.10335 -0.0703,-0.15848 -0.0689,-0.0551 -0.30455,-0.1061 l -0.0882,-0.0207 q -0.23564,-0.0496 -0.34037,-0.15158 -0.10473,-0.10335 -0.10473,-0.2825 0,-0.21773 0.15434,-0.33624 0.15434,-0.11851 0.43821,-0.11851 0.14056,0 0.26459,0.0207 0.12402,0.0207 0.22875,0.062 z" />
    <path
       id="path7974"
       d="m 120.7887,164.4535 v 0.43822 h 0.52228 v 0.19706 h -0.52228 v 0.83784 q 0,0.18879 0.051,0.24254 0.0524,0.0537 0.21084,0.0537 h 0.26045 v 0.21222 h -0.26045 q -0.29352,0 -0.40515,-0.10887 -0.11162,-0.11024 -0.11162,-0.39963 v -0.83784 h -0.18603 v -0.19706 h 0.18603 v -0.43822 z" />
    <path
       id="path7976"
       d="m 121.68167,166.0851 h 0.29077 v 0.35002 h -0.29077 z" />
  </g>
</svg>
