<?xml version="1.0" encoding="UTF-8" standalone="no"?>
<svg
   xmlns:dc="http://purl.org/dc/elements/1.1/"
   xmlns:cc="http://creativecommons.org/ns#"
   xmlns:rdf="http://www.w3.org/1999/02/22-rdf-syntax-ns#"
   xmlns:svg="http://www.w3.org/2000/svg"
   xmlns="http://www.w3.org/2000/svg"
   width="20mm"
   height="20mm"
   viewBox="0 0 20 20"
   version="1.1"
   id="svg9327">
  <defs
     id="defs9321" />
  <metadata
     id="metadata9324">
    <rdf:RDF>
      <cc:Work
         rdf:about="">
        <dc:format>image/svg+xml</dc:format>
        <dc:type
           rdf:resource="http://purl.org/dc/dcmitype/StillImage" />
        <dc:title></dc:title>
      </cc:Work>
    </rdf:RDF>
  </metadata>
  <rect
     y="1.4838438e-06"
     x="3.4524194e-18"
     height="20"
     width="20"
     id="rect4491"
     style="opacity:1;fill:#ffffff;fill-opacity:1;stroke:none;stroke-width:0.26458332;stroke-miterlimit:4;stroke-dasharray:none;stroke-dashoffset:0;stroke-opacity:1" />
  <g
     id="layer1"
     transform="translate(0,-277)">
    <path
       style="fill:#000000;fill-opacity:1;stroke:none;stroke-width:0.07000436;stroke-miterlimit:4;stroke-dasharray:none"
       d="m 17.262188,281.83371 c 0,-0.81716 -1.353431,-0.68948 -1.915232,-0.68948 H 8.6308787 c -0.8937734,0 -2.4770284,0.51073 -2.7579282,1.48111 0.025536,0.10214 0.051072,0.10214 0.1787541,0.10214 0.3830461,0 0.9193099,-0.30643 1.1746738,-0.58733 0.5362635,0 1.0725273,-0.0255 1.6343275,-0.0255 h 1.0980648 c 0,0 -0.076609,0.33197 -0.076609,0.33197 -0.6894828,3.26866 -1.7364741,6.02659 -2.5281018,7.7886 -0.1021456,0.22983 -1.0725273,2.45149 -1.3023553,2.65578 -0.7916274,0 -1.3789637,-0.43412 -1.7109368,-1.1236 -0.051073,-0.10214 -0.051073,-0.17875 -0.1787547,-0.17875 -0.4085821,0 -1.3789642,0.58733 -1.3789642,0.86823 0,0.0511 0.025537,0.0766 0.025537,0.12768 0.3319726,0.81717 1.1236004,1.30236 1.9918368,1.30236 0.9193101,0 1.9663016,-0.63841 2.5536376,-1.30236 0.5873368,-0.68948 1.7620099,-3.60062 2.2216645,-4.67315 h 3.4474162 c -0.02554,0.0255 -0.05107,0.0255 -0.05107,0.0511 0,0.0766 0.102146,0.12768 0.178755,0.12768 0.383047,0 1.404503,-0.51073 1.404503,-1.04699 0,-0.12768 -0.127682,-0.12768 -0.331974,-0.12768 H 9.9332342 c 0.4851918,-1.58326 1.0725288,-3.16651 1.4045028,-4.80084 h 2.349351 c 0.434119,0 1.685404,-0.10215 2.017378,0.30644 0.02554,0.10214 -0.02554,0.2809 0.02554,0.35751 0.05107,0.0511 0.102145,0.0766 0.153218,0.0766 0.434119,0 1.378968,-0.53626 1.378968,-1.02145 z m 0,0"
       id="path8991" />
  </g>
</svg>
