<?xml version="1.0" encoding="UTF-8" standalone="no"?>
<svg
   xmlns:dc="http://purl.org/dc/elements/1.1/"
   xmlns:cc="http://creativecommons.org/ns#"
   xmlns:rdf="http://www.w3.org/1999/02/22-rdf-syntax-ns#"
   xmlns:svg="http://www.w3.org/2000/svg"
   xmlns="http://www.w3.org/2000/svg"
   width="20mm"
   height="20mm"
   viewBox="0 0 20 20"
   version="1.1"
   id="svg9327">
  <defs
     id="defs9321" />
  <metadata
     id="metadata9324">
    <rdf:RDF>
      <cc:Work
         rdf:about="">
        <dc:format>image/svg+xml</dc:format>
        <dc:type
           rdf:resource="http://purl.org/dc/dcmitype/StillImage" />
        <dc:title></dc:title>
      </cc:Work>
    </rdf:RDF>
  </metadata>
  <rect
     y="-5.5631e-07"
     x="-5.5511151e-17"
     height="20"
     width="20"
     id="rect4491"
     style="opacity:1;fill:#ffffff;fill-opacity:1;stroke:none;stroke-width:0.26458332;stroke-miterlimit:4;stroke-dasharray:none;stroke-dashoffset:0;stroke-opacity:1" />
  <g
     id="layer1"
     transform="translate(0,-277)">
    <g
       id="use4760-9"
       style="fill:#000000;fill-opacity:1;stroke-width:0.10996442"
       transform="matrix(0.84881214,0,0,0.84881214,2.0328029,290.58278)">
      <path
         style="stroke:none;stroke-width:0.10996442"
         d="m 9.046875,-7.03125 c 0,-0.5 -0.828125,-0.421875 -1.171875,-0.421875 H 3.765625 c -0.546875,0 -1.515625,0.3125 -1.6875,0.90625 0.015625,0.0625 0.03125,0.0625 0.109375,0.0625 0.234375,0 0.5625,-0.1875 0.71875,-0.359375 0.328125,0 0.65625,-0.015625 1,-0.015625 h 0.671875 c 0,0 -0.046875,0.203125 -0.046875,0.203125 -0.421875,2 -1.0625,3.6875 -1.546875,4.765625 -0.0625,0.140625 -0.65625,1.5 -0.796875,1.625 -0.484375,0 -0.84375,-0.265625 -1.046875,-0.6875 -0.03125,-0.0625 -0.03125,-0.109375 -0.109375,-0.109375 -0.25,0 -0.84375,0.359375 -0.84375,0.53125 0,0.03125 0.015625,0.046875 0.015625,0.078125 0.203125,0.5 0.6875,0.796875 1.21875,0.796875 0.5625,0 1.203125,-0.390625 1.5625,-0.796875 C 3.34375,-0.875 4.0625,-2.65625 4.34375,-3.3125 h 2.109375 c -0.015625,0.015625 -0.03125,0.015625 -0.03125,0.03125 0,0.046875 0.0625,0.078125 0.109375,0.078125 0.234375,0 0.859375,-0.3125 0.859375,-0.640625 0,-0.078125 -0.078125,-0.078125 -0.203125,-0.078125 h -2.625 c 0.296875,-0.96875 0.65625,-1.9375 0.859375,-2.9375 h 1.4375 c 0.265625,0 1.03125,-0.0625 1.234375,0.1875 0.015625,0.0625 -0.015625,0.171875 0.015625,0.21875 0.03125,0.03125 0.0625,0.046875 0.09375,0.046875 0.265625,0 0.84375,-0.328125 0.84375,-0.625 z m 0,0"
         id="path9146" />
    </g>
    <g
       id="use4764-4"
       style="fill:#000000;fill-opacity:1;stroke-width:0.10996442"
       transform="matrix(0.84881214,0,0,0.84881214,9.2825365,287.20112)">
      <path
         style="stroke:none;stroke-width:0.10996442"
         d="m 5.5625,-1.8125 c 0.140625,0 0.3125,0 0.3125,-0.171875 0,-0.1875 -0.171875,-0.1875 -0.3125,-0.1875 H 1 c -0.125,0 -0.296875,0 -0.296875,0.1875 C 0.703125,-1.8125 0.875,-1.8125 1,-1.8125 Z m 0,0"
         id="path9154" />
    </g>
    <g
       id="use4768-0"
       style="fill:#000000;fill-opacity:1;stroke-width:0.10996442"
       transform="matrix(0.84881214,0,0,0.84881214,14.719221,287.26964)">
      <path
         style="stroke:none;stroke-width:0.10996442"
         d="m 2.5,-5.078125 c 0,-0.21875 -0.015625,-0.21875 -0.234375,-0.21875 -0.328125,0.3125 -0.75,0.5 -1.5,0.5 v 0.265625 c 0.21875,0 0.640625,0 1.109375,-0.203125 v 4.078125 c 0,0.296875 -0.03125,0.390625 -0.78125,0.390625 H 0.8125 V 0 c 0.328125,-0.03125 1.015625,-0.03125 1.375,-0.03125 0.359375,0 1.046875,0 1.375,0.03125 V -0.265625 H 3.28125 c -0.75,0 -0.78125,-0.09375 -0.78125,-0.390625 z m 0,0"
         id="path9150" />
    </g>
  </g>
</svg>
