<?xml version="1.0" encoding="UTF-8" standalone="no"?>
<svg
   xmlns:dc="http://purl.org/dc/elements/1.1/"
   xmlns:cc="http://creativecommons.org/ns#"
   xmlns:rdf="http://www.w3.org/1999/02/22-rdf-syntax-ns#"
   xmlns:svg="http://www.w3.org/2000/svg"
   xmlns="http://www.w3.org/2000/svg"
   width="20mm"
   height="20mm"
   viewBox="0 0 20 20"
   version="1.1"
   id="svg9327">
  <defs
     id="defs9321" />
  <metadata
     id="metadata9324">
    <rdf:RDF>
      <cc:Work
         rdf:about="">
        <dc:format>image/svg+xml</dc:format>
        <dc:type
           rdf:resource="http://purl.org/dc/dcmitype/StillImage" />
        <dc:title></dc:title>
      </cc:Work>
    </rdf:RDF>
  </metadata>
  <rect
     y="1.4838438e-06"
     x="3.4524194e-18"
     height="20"
     width="20"
     id="rect4491"
     style="opacity:1;fill:#ffffff;fill-opacity:1;stroke:none;stroke-width:0.26458332;stroke-miterlimit:4;stroke-dasharray:none;stroke-dashoffset:0;stroke-opacity:1" />
  <path
     id="path1898"
     d="m 0.98488503,16.351885 c -0.12964597,-0.05466 -0.12256281,0.276668 -0.12256281,-5.733087 0,-4.7424553 0.004838,-5.5578858 0.0334884,-5.6264267 0.0652055,-0.1560609 0.30666778,-0.1639373 0.38346808,-0.012509 0.023905,0.047136 0.028735,1.1761319 0.024233,5.6677117 l -0.00562,5.608849 -0.048501,0.0485 c -0.056477,0.05647 -0.1869994,0.07965 -0.26451513,0.04697 z m 12.61990897,0 c -0.129645,-0.05466 -0.122563,0.276668 -0.122563,-5.733087 0,-4.7424553 0.0049,-5.5578858 0.03348,-5.6264267 0.06521,-0.1560609 0.30667,-0.1639373 0.383469,-0.012509 0.0239,0.047136 0.02874,1.1761319 0.02423,5.6677117 l -0.0057,5.608849 -0.04851,0.0485 c -0.05647,0.05647 -0.187,0.07965 -0.264515,0.04697 z M 3.8430961,13.820199 c -0.3628652,-0.09184 -0.7187964,-0.367477 -0.8732819,-0.676276 -0.045459,-0.09087 -0.082654,-0.186934 -0.082654,-0.213474 0,-0.11641 0.4033487,-0.408419 0.704089,-0.509733 0.2065335,-0.06958 0.2331534,-0.06107 0.3184949,0.101761 0.2114396,0.403417 0.5417994,0.641003 0.9574391,0.688562 0.1258192,0.01439 0.1339334,0.01202 0.1796,-0.0525 C 5.1651776,12.991287 5.686558,11.881936 6.0357182,11.054365 6.5855061,9.7512727 7.0629908,8.2759792 7.3724873,6.9241241 7.4438723,6.6123258 7.5081101,6.3317096 7.515241,6.3005318 l 0.012963,-0.056685 -0.8854226,0.013754 -0.8854207,0.013752 -0.088029,0.079528 C 5.4275119,6.5693514 4.941932,6.7333945 4.8954687,6.6123146 4.8699654,6.545864 5.0034448,6.3298493 5.1611774,6.1822981 5.3410366,6.0140494 5.5446335,5.8966552 5.8391011,5.7914091 6.2736796,5.6360838 6.1658216,5.6411768 9.0712318,5.6388087 11.897998,5.6364987 11.854546,5.6348287 12.057589,5.753421 12.21614,5.84602 12.282636,6.0660839 12.200219,6.2254589 12.098742,6.4217004 11.664949,6.6971099 11.426143,6.716914 11.276046,6.72936 11.251298,6.706362 11.241112,6.5449759 11.233812,6.4285952 11.232912,6.4274445 11.104224,6.3638665 11.033004,6.3286755 10.905861,6.2890245 10.82169,6.2757525 10.586208,6.2386235 8.4210892,6.2430635 8.409952,6.2806925 8.405122,6.2968795 8.372574,6.4372643 8.337522,6.5926592 8.249691,6.9820851 8.0681998,7.60212 7.765511,8.5468614 l -0.2564832,0.8005159 1.4652394,0.00607 c 1.6278468,0.00673 1.5379188,-0.00293 1.5068788,0.1624893 -0.04082,0.2175621 -0.5585776,0.5744394 -0.8440155,0.5817514 -0.1054485,0.0027 -0.1251353,-0.004 -0.1453118,-0.04985 L 9.4684878,9.9948738 8.3733618,9.9951037 7.278234,9.9953358 6.9857334,10.68378 c -0.5413146,1.274069 -0.8594879,1.931501 -1.0966289,2.265934 -0.2296074,0.32381 -0.7328141,0.668533 -1.2063327,0.826405 -0.2320455,0.07737 -0.626376,0.09807 -0.8396696,0.04408 z M 15.766059,8.6398027 c 0,-0.1063124 0.004,-0.1117125 0.354235,-0.4817747 0.194829,-0.2058413 0.613644,-0.6413213 0.9307,-0.9677323 0.841117,-0.8659373 1.082079,-1.1641122 1.282085,-1.5865001 0.144121,-0.3043623 0.191104,-0.5022011 0.190638,-0.8027359 -6.23e-4,-0.3751098 -0.07784,-0.639086 -0.265199,-0.906189 -0.15676,-0.2234787 -0.374086,-0.3712674 -0.637154,-0.4332881 -0.29086,-0.068572 -0.612657,-0.022668 -0.9169,0.1307973 -0.185057,0.093347 -0.405012,0.3128001 -0.507956,0.5067998 l -0.07576,0.1427716 0.141645,0.026343 c 0.266888,0.049632 0.378181,0.1724276 0.378181,0.4172623 0,0.2593008 -0.148865,0.4147842 -0.412252,0.4305821 -0.191649,0.011495 -0.329968,-0.058323 -0.408043,-0.205967 -0.144216,-0.2727137 0.0054,-0.8452415 0.31241,-1.1961316 0.205394,-0.2346913 0.545153,-0.4350021 0.875821,-0.5163588 0.209174,-0.051466 0.684727,-0.050777 0.918493,0.00132 0.849292,0.1893049 1.393475,0.8112091 1.393475,1.5924962 0,0.349881 -0.115286,0.6860153 -0.346518,1.0103285 -0.140309,0.1967907 -0.569567,0.6297337 -0.829893,0.8370197 -0.110072,0.087644 -0.496077,0.425663 -0.85779,0.7511518 -0.361713,0.3254889 -0.674267,0.6050565 -0.694566,0.6212616 -0.05349,0.04271 2.176031,0.03126 2.250807,-0.011564 0.06241,-0.035736 0.134128,-0.2436838 0.183857,-0.5330802 0.01975,-0.1150042 0.03593,-0.2130082 0.03593,-0.2177875 0,-0.00475 0.05808,-0.00869 0.129044,-0.00869 h 0.129046 l -0.01389,0.1000652 c -0.0075,0.055034 -0.06306,0.3914286 -0.123158,0.7475414 l -0.109262,0.6474761 -1.65401,0.00605 -1.654007,0.00605 z"
     style="fill:#000000;stroke-width:0.99999994" />
</svg>
