<?xml version="1.0" encoding="UTF-8" standalone="no"?>
<svg
   xmlns:dc="http://purl.org/dc/elements/1.1/"
   xmlns:cc="http://creativecommons.org/ns#"
   xmlns:rdf="http://www.w3.org/1999/02/22-rdf-syntax-ns#"
   xmlns:svg="http://www.w3.org/2000/svg"
   xmlns="http://www.w3.org/2000/svg"
   width="20mm"
   height="20mm"
   viewBox="0 0 20 20"
   version="1.1"
   id="svg9327">
  <defs
     id="defs9321" />
  <metadata
     id="metadata9324">
    <rdf:RDF>
      <cc:Work
         rdf:about="">
        <dc:format>image/svg+xml</dc:format>
        <dc:type
           rdf:resource="http://purl.org/dc/dcmitype/StillImage" />
        <dc:title></dc:title>
      </cc:Work>
    </rdf:RDF>
  </metadata>
  <rect
     y="1.4838438e-06"
     x="3.4524194e-18"
     height="20"
     width="20"
     id="rect4491"
     style="opacity:1;fill:#ffffff;fill-opacity:1;stroke:none;stroke-width:0.26458332;stroke-miterlimit:4;stroke-dasharray:none;stroke-dashoffset:0;stroke-opacity:1" />
  <g
     transform="matrix(1.4718245,0,0,1.4718245,2.4627223,16.139863)"
     style="fill:#000000;fill-opacity:1;stroke-width:0.06341729"
     id="use6602">
    <path
       style="stroke:none;stroke-width:0.06341729"
       d="M 3.34375,-6.265625 C 3.53125,-5.6875 3.78125,-4.875 4.265625,-3.53125 4.953125,-1.671875 5.25,-1 5.921875,0.03125 c 0.15625,0.234375 0.15625,0.234375 0.265625,0.234375 0.15625,0 0.375,-0.125 0.5,-0.21875 C 6.84375,-0.09375 6.84375,-0.09375 6.96875,-0.625 7.625,-3.5 8.453125,-6.484375 8.671875,-6.984375 c 0.015625,-0.03125 0.234375,-0.4375 1.5625,-0.46875 0.21875,0 0.4375,-0.578125 0.4375,-0.828125 0,-0.171875 -0.07813,-0.171875 -0.21875,-0.171875 -1.09375,0 -1.59375,0.453125 -1.71875,0.59375 -0.296875,0.40625 -0.5625,1.203125 -1.0625,3.015625 C 7.28125,-3.453125 6.9375,-2.03125 6.59375,-0.625 6,-1.53125 5.65625,-2.390625 5.140625,-3.796875 4.5625,-5.34375 4.203125,-6.484375 3.921875,-7.453125 3.84375,-7.671875 3.84375,-7.6875 3.734375,-7.6875 c -0.015625,0 -0.234375,0 -0.546875,0.265625 -0.109375,0.09375 -0.125,0.1875 -0.140625,0.3125 C 2.75,-4.203125 1.71875,-1.34375 1.421875,-0.8125 1.34375,-0.65625 1.203125,-0.453125 1,-0.453125 c -0.109375,0 -0.546875,-0.0625 -0.828125,-0.328125 C 0.125,-0.8125 0.09375,-0.8125 0.09375,-0.8125 c -0.1875,0 -0.40625,0.546875 -0.40625,0.796875 0,0.34375 0.65625,0.5625 0.96875,0.5625 C 1.359375,0.546875 1.90625,-1 2.078125,-1.5 2.796875,-3.46875 3.125,-5.09375 3.34375,-6.265625 Z m 0,0"
       id="path7899" />
  </g>
</svg>
