<?xml version="1.0" encoding="UTF-8" standalone="no"?>
<svg
   xmlns:dc="http://purl.org/dc/elements/1.1/"
   xmlns:cc="http://creativecommons.org/ns#"
   xmlns:rdf="http://www.w3.org/1999/02/22-rdf-syntax-ns#"
   xmlns:svg="http://www.w3.org/2000/svg"
   xmlns="http://www.w3.org/2000/svg"
   width="20mm"
   height="20mm"
   viewBox="0 0 20 20"
   version="1.1"
   id="svg9327">
  <defs
     id="defs9321" />
  <metadata
     id="metadata9324">
    <rdf:RDF>
      <cc:Work
         rdf:about="">
        <dc:format>image/svg+xml</dc:format>
        <dc:type
           rdf:resource="http://purl.org/dc/dcmitype/StillImage" />
        <dc:title></dc:title>
      </cc:Work>
    </rdf:RDF>
  </metadata>
  <rect
     y="1.4838438e-06"
     x="3.4524194e-18"
     height="20"
     width="20"
     id="rect4491"
     style="opacity:1;fill:#ffffff;fill-opacity:1;stroke:none;stroke-width:0.26458332;stroke-miterlimit:4;stroke-dasharray:none;stroke-dashoffset:0;stroke-opacity:1" />
  <g
     id="text846"
     aria-label="mx">
    <path
       id="path3698"
       d="M 6.0055458,11.344157 6.8364829,7.0956565 q 0.1675276,-0.8376382 0.1675276,-1.1659923 0,-0.5025829 -0.254642,-0.763926 -0.254642,-0.2680443 -0.830937,-0.2680443 -0.7773282,0 -1.3603244,0.6634095 -0.576295,0.6634094 -0.7572249,1.7355862 L 3.0101518,11.344157 H 1.8106539 L 2.9230374,5.6415166 Q 3.0570595,5.0049116 3.1843805,4.0935613 h 1.1391879 q 0,0.073712 -0.073712,0.5226862 -0.067011,0.442273 -0.1139188,0.7170183 h 0.020103 Q 4.6452215,4.5693398 5.1344022,4.26779 5.6302839,3.9662403 6.3137967,3.9662403 q 0.8108337,0 1.2866122,0.4020663 0.4757785,0.3953652 0.5695939,1.1525901 0.5561918,-0.8711437 1.0922802,-1.2129 0.5427895,-0.3417564 1.239704,-0.3417564 0.90465,0 1.387129,0.4891807 0.489181,0.4891807 0.489181,1.4139332 0,0.4288707 -0.140723,1.0989813 l -0.851041,4.3758215 h -1.192796 l 0.830937,-4.2485005 q 0.167527,-0.8376382 0.167527,-1.1659923 0,-0.5025829 -0.254642,-0.763926 -0.254642,-0.2680443 -0.830937,-0.2680443 -0.7773279,0 -1.353623,0.6567084 -0.576295,0.6500072 -0.763926,1.722184 L 7.1983426,11.344157 Z" />
    <path
       id="path3700"
       style="font-size:8.92051125px;baseline-shift:sub;stroke-width:0.26458332px"
       d="m 16.517235,14.08893 -1.267514,-1.933939 -1.276226,1.933939 h -0.845009 l 1.676951,-2.42178 -1.598548,-2.2911074 h 0.866788 L 15.249721,11.2098 16.417053,9.3760426 h 0.8755 l -1.598549,2.2823964 1.69873,2.430491 z" />
  </g>
</svg>
