<?xml version="1.0" encoding="UTF-8" standalone="no"?>
<svg
   xmlns:dc="http://purl.org/dc/elements/1.1/"
   xmlns:cc="http://creativecommons.org/ns#"
   xmlns:rdf="http://www.w3.org/1999/02/22-rdf-syntax-ns#"
   xmlns:svg="http://www.w3.org/2000/svg"
   xmlns="http://www.w3.org/2000/svg"
   width="20mm"
   height="20mm"
   viewBox="0 0 20 20"
   version="1.1"
   id="svg9327">
  <defs
     id="defs9321" />
  <metadata
     id="metadata9324">
    <rdf:RDF>
      <cc:Work
         rdf:about="">
        <dc:format>image/svg+xml</dc:format>
        <dc:type
           rdf:resource="http://purl.org/dc/dcmitype/StillImage" />
        <dc:title></dc:title>
      </cc:Work>
    </rdf:RDF>
  </metadata>
  <rect
     y="1.4838438e-06"
     x="3.4524194e-18"
     height="20"
     width="20"
     id="rect4491"
     style="opacity:1;fill:#ffffff;fill-opacity:1;stroke:none;stroke-width:0.26458332;stroke-miterlimit:4;stroke-dasharray:none;stroke-dashoffset:0;stroke-opacity:1" />
  <g
     id="text846"
     aria-label="mxy">
    <path
       id="path3691"
       d="M 3.854884,11.344157 4.685821,7.0956565 q 0.1675276,-0.8376382 0.1675276,-1.1659923 0,-0.5025829 -0.254642,-0.763926 -0.254642,-0.2680443 -0.830937,-0.2680443 -0.7773282,0 -1.3603244,0.6634095 -0.576295,0.6634094 -0.7572249,1.7355862 L 0.8594899,11.344157 H -0.34000794 L 0.77237553,5.6415166 Q 0.90639764,5.0049116 1.0337186,4.0935613 h 1.1391879 q 0,0.073712 -0.073712,0.5226862 -0.067011,0.442273 -0.1139188,0.7170183 h 0.020103 Q 2.4945596,4.5693398 2.9837403,4.26779 3.4796221,3.9662403 4.1631348,3.9662403 q 0.8108337,0 1.2866122,0.4020663 0.4757785,0.3953652 0.569594,1.1525901 0.5561917,-0.8711437 1.0922801,-1.2129 0.5427895,-0.3417564 1.2397045,-0.3417564 0.9046492,0 1.3871288,0.4891807 0.4891806,0.4891807 0.4891806,1.4139332 0,0.4288707 -0.140723,1.0989813 L 9.2358715,11.344157 H 8.0430748 l 0.830937,-4.2485005 q 0.1675276,-0.8376382 0.1675276,-1.1659923 0,-0.5025829 -0.254642,-0.763926 -0.254642,-0.2680443 -0.830937,-0.2680443 -0.7773282,0 -1.3536233,0.6567084 -0.576295,0.6500072 -0.763926,1.722184 L 5.0476807,11.344157 Z" />
    <path
       id="path3693"
       style="font-size:8.92051125px;baseline-shift:sub;stroke-width:0.26458332px"
       d="m 14.366573,14.08893 -1.267514,-1.933939 -1.276226,1.933939 h -0.845009 l 1.676952,-2.42178 -1.598549,-2.2911074 h 0.866788 L 13.099059,11.2098 14.266391,9.3760426 h 0.8755 l -1.598549,2.2823964 1.69873,2.430491 z" />
    <path
       id="path3695"
       style="font-size:8.92051125px;baseline-shift:sub;stroke-width:0.26458332px"
       d="m 16.16984,15.94011 q -0.322323,0 -0.540109,-0.04791 v -0.588022 q 0.165518,0.02614 0.365881,0.02614 0.73176,0 1.158621,-1.075863 l 0.07405,-0.187296 -1.868603,-4.6911084 h 0.836298 l 0.993103,2.6047194 q 0.02178,0.06098 0.05227,0.148095 0.03049,0.08276 0.196007,0.566243 0.165518,0.483485 0.178585,0.540109 l 0.3049,-0.858076 1.032305,-3.0010904 h 0.827587 L 17.968752,14.08893 q -0.291833,0.753539 -0.544465,1.11942 -0.252631,0.370236 -0.561887,0.54882 -0.304901,0.18294 -0.69256,0.18294 z" />
  </g>
</svg>
