<?xml version="1.0" encoding="UTF-8" standalone="no"?>
<svg
   xmlns:dc="http://purl.org/dc/elements/1.1/"
   xmlns:cc="http://creativecommons.org/ns#"
   xmlns:rdf="http://www.w3.org/1999/02/22-rdf-syntax-ns#"
   xmlns:svg="http://www.w3.org/2000/svg"
   xmlns="http://www.w3.org/2000/svg"
   width="20mm"
   height="20mm"
   viewBox="0 0 20 20"
   version="1.1"
   id="svg9327">
  <defs
     id="defs9321" />
  <metadata
     id="metadata9324">
    <rdf:RDF>
      <cc:Work
         rdf:about="">
        <dc:format>image/svg+xml</dc:format>
        <dc:type
           rdf:resource="http://purl.org/dc/dcmitype/StillImage" />
        <dc:title></dc:title>
      </cc:Work>
    </rdf:RDF>
  </metadata>
  <rect
     y="1.4838438e-06"
     x="3.4524194e-18"
     height="20"
     width="20"
     id="rect4491"
     style="opacity:1;fill:#ffffff;fill-opacity:1;stroke:none;stroke-width:0.26458332;stroke-miterlimit:4;stroke-dasharray:none;stroke-dashoffset:0;stroke-opacity:1" />
  <path
     id="path1640"
     class="ColorScheme-Text"
     d="m 7.7640619,0.974085 c -3.7896378,0 -6.84050437,3.0554224 -6.84050437,6.8405042 0,3.7896378 3.05542257,6.8404988 6.84050437,6.8404988 1.6168552,0 3.0802661,-0.57946 4.2485971,-1.511205 l 6.077476,6.077481 1.074768,-1.074768 -6.077481,-6.077476 c 0.935858,-1.170152 1.517145,-2.6351016 1.517145,-4.2545308 0,-3.7896435 -3.055428,-6.8405042 -6.8405051,-6.8405042 z m 0,1.5201103 c 2.9474981,0 5.3203901,2.3728915 5.3203901,5.3203939 0,2.9474968 -2.372892,5.3203888 -5.3203901,5.3203888 -2.9474967,0 -5.3203942,-2.372892 -5.3203942,-5.3203888 0,-2.9475024 2.3728975,-5.3203939 5.3203942,-5.3203939 z"
     style="fill:currentColor;fill-opacity:1;stroke:none;stroke-width:0.26458332" />
</svg>
