<?xml version="1.0" encoding="UTF-8" standalone="no"?>
<svg
   xmlns:dc="http://purl.org/dc/elements/1.1/"
   xmlns:cc="http://creativecommons.org/ns#"
   xmlns:rdf="http://www.w3.org/1999/02/22-rdf-syntax-ns#"
   xmlns:svg="http://www.w3.org/2000/svg"
   xmlns="http://www.w3.org/2000/svg"
   width="20mm"
   height="20mm"
   viewBox="0 0 20 20"
   version="1.1"
   id="svg9327">
  <defs
     id="defs9321" />
  <metadata
     id="metadata9324">
    <rdf:RDF>
      <cc:Work
         rdf:about="">
        <dc:format>image/svg+xml</dc:format>
        <dc:type
           rdf:resource="http://purl.org/dc/dcmitype/StillImage" />
        <dc:title></dc:title>
      </cc:Work>
    </rdf:RDF>
  </metadata>
  <rect
     y="1.4187561e-06"
     x="3.4524194e-18"
     height="20"
     width="20"
     id="rect4491"
     style="opacity:1;fill:#ffffff;fill-opacity:1;stroke:none;stroke-width:0.26458332;stroke-miterlimit:4;stroke-dasharray:none;stroke-dashoffset:0;stroke-opacity:1" />
  <g
     id="text9777"
     aria-label="F">
    <path
       id="path10435"
       d="m 15.743151,6.9921111 h 3.538801 l -0.136425,0.7027994 h -2.707845 l -0.355534,1.8190103 h 2.447396 L 18.393118,10.21672 h -2.447396 l -0.574642,2.947624 h -0.830957 z" />
  </g>
  <g
     transform="translate(0,1.0583333)"
     id="text9781"
     aria-label="|F|">
    <path
       id="path10438"
       d="M 1.4881882,0.97482366 V 9.4414899 H 0.78538872 V 0.97482366 Z" />
    <path
       id="path10440"
       d="M 4.0017297,1.2724799 H 7.5405316 L 7.4041059,1.9752793 H 4.696261 L 4.3407271,3.7942897 H 6.7881228 L 6.651697,4.4970891 H 4.2043013 L 3.6296594,7.4447126 H 2.7987025 Z" />
    <path
       id="path10442"
       d="M 9.2272505,0.97482366 V 9.4414899 H 8.524451 V 0.97482366 Z" />
  </g>
  <g
     transform="translate(0,-1.0583333)"
     id="text9793"
     aria-label="α">
    <path
       id="path10445"
       d="m 5.2778544,15.734669 0.00413,-0.954981 q 0.00413,-0.975651 -0.7317382,-0.979785 -0.5498373,-0.0041 -0.8929687,0.454753 -0.4299479,0.566373 -0.5746419,1.322916 -0.177767,0.909505 0.045475,1.343587 0.2315104,0.442351 0.7317383,0.442351 0.5539713,0 1.0211262,-0.880567 z M 4.6784078,13.154981 q 1.2898437,-0.02067 1.2733072,1.314649 0,0 0.6449219,-1.211296 h 0.6779947 l -1.3353189,2.509408 -0.012402,0.905371 q 0,0.202571 0.1116211,0.37207 0.1281576,0.198437 0.2604492,0.198437 H 6.6669168 L 6.5428934,17.888542 H 6.0840067 q -0.3886068,0 -0.6697265,-0.347265 Q 5.2819885,17.367644 5.2778544,17.003842 5.009137,17.446192 4.5461161,17.822396 4.3270081,17.996029 3.7358297,17.991895 2.768447,17.983627 2.4170472,17.36351 2.0573793,16.718588 2.2806215,15.577572 2.5204001,14.34974 3.1487855,13.791635 3.855719,13.167384 4.6784078,13.154981 Z" />
  </g>
</svg>
