<?xml version="1.0" encoding="UTF-8" standalone="no"?>
<svg
   xmlns:dc="http://purl.org/dc/elements/1.1/"
   xmlns:cc="http://creativecommons.org/ns#"
   xmlns:rdf="http://www.w3.org/1999/02/22-rdf-syntax-ns#"
   xmlns:svg="http://www.w3.org/2000/svg"
   xmlns="http://www.w3.org/2000/svg"
   id="svg9327"
   version="1.1"
   viewBox="0 0 20 20"
   height="20mm"
   width="20mm">
  <defs
     id="defs9321" />
  <metadata
     id="metadata9324">
    <rdf:RDF>
      <cc:Work
         rdf:about="">
        <dc:format>image/svg+xml</dc:format>
        <dc:type
           rdf:resource="http://purl.org/dc/dcmitype/StillImage" />
        <dc:title></dc:title>
      </cc:Work>
    </rdf:RDF>
  </metadata>
  <rect
     style="opacity:1;fill:#ffffff;fill-opacity:1;stroke:none;stroke-width:0.26458332;stroke-miterlimit:4;stroke-dasharray:none;stroke-dashoffset:0;stroke-opacity:1"
     id="rect4491"
     width="20"
     height="20"
     x="3.4524194e-18"
     y="1.4838438e-06" />
  <g
     id="text11632"
     aria-label="MOD">
    <path
       id="path815"
       d="M 0.72088202,7.1989892 H 1.9300136 L 3.4605091,11.28031 4.9990387,7.1989892 H 6.2081703 V 13.196443 H 5.4168117 V 7.930092 L 3.8702481,12.04355 H 3.0547872 L 1.5082235,7.930092 v 5.266351 H 0.72088202 Z" />
    <path
       id="path817"
       d="m 10.257355,7.7493248 q -0.8837504,0 -1.4059667,0.658796 -0.5181993,0.6587959 -0.5181993,1.7956202 0,1.132808 0.5181993,1.791604 0.5222163,0.658796 1.4059667,0.658796 0.883751,0 1.397933,-0.658796 0.518199,-0.658796 0.518199,-1.791604 0,-1.1368243 -0.518199,-1.7956202 -0.514182,-0.658796 -1.397933,-0.658796 z m 0,-0.6587959 q 1.261354,0 2.016559,0.8475972 0.755205,0.8435802 0.755205,2.2656149 0,1.418019 -0.755205,2.265616 -0.755205,0.84358 -2.016559,0.84358 -1.26537,0 -2.0245922,-0.84358 -0.7552051,-0.84358 -0.7552051,-2.265616 0,-1.4220347 0.7552051,-2.2656149 Q 8.991985,7.0905289 10.257355,7.0905289 Z" />
    <path
       id="path819"
       d="m 15.109949,7.8658192 v 4.6637938 h 0.98016 q 1.241268,0 1.815706,-0.562387 0.578455,-0.562387 0.578455,-1.775536 0,-1.2051142 -0.578455,-1.763484 -0.574438,-0.5623868 -1.815706,-0.5623868 z m -0.811444,-0.66683 h 1.667076 q 1.743399,0 2.558859,0.7270858 0.815461,0.7230687 0.815461,2.265615 0,1.550581 -0.819478,2.277667 -0.819478,0.727086 -2.554842,0.727086 h -1.667076 z" />
  </g>
</svg>
