<?xml version="1.0" encoding="UTF-8" standalone="no"?>
<svg
   xmlns:dc="http://purl.org/dc/elements/1.1/"
   xmlns:cc="http://creativecommons.org/ns#"
   xmlns:rdf="http://www.w3.org/1999/02/22-rdf-syntax-ns#"
   xmlns:svg="http://www.w3.org/2000/svg"
   xmlns="http://www.w3.org/2000/svg"
   width="20mm"
   height="20mm"
   viewBox="0 0 20 20"
   version="1.1"
   id="svg9327">
  <defs
     id="defs9321" />
  <metadata
     id="metadata9324">
    <rdf:RDF>
      <cc:Work
         rdf:about="">
        <dc:format>image/svg+xml</dc:format>
        <dc:type
           rdf:resource="http://purl.org/dc/dcmitype/StillImage" />
        <dc:title></dc:title>
      </cc:Work>
    </rdf:RDF>
  </metadata>
  <rect
     y="1.4838438e-06"
     x="3.4524194e-18"
     height="20"
     width="20"
     id="rect4491"
     style="opacity:1;fill:#ffffff;fill-opacity:1;stroke:none;stroke-width:0.26458332;stroke-miterlimit:4;stroke-dasharray:none;stroke-dashoffset:0;stroke-opacity:1" />
  <g
     id="text991"
     aria-label="xn">
    <g
       aria-label="x½"
       id="text826">
      <path
         d="M 7.2294766,17.388279 5.3425723,13.379736 1.9118372,17.388279 H 0.11521534 L 4.5571145,12.368572 2.1736564,7.6197121 H 3.8799957 L 5.6224481,11.420605 8.7823357,7.6197121 h 1.8598193 l -4.2342492,4.7308029 2.5369384,5.037764 z"
         id="path2620" />
      <path
         d="M 10.429089,6.6884478 V 6.0605329 h 1.238224 V 2.4221478 L 10.481904,3.2319819 V 2.5277783 L 11.71426,1.7238125 h 0.721809 v 4.3367204 h 1.261698 v 0.6279149 z m 2.564474,3.3038885 h -0.868517 l 5.170028,-8.2685238 h 0.850912 z m 3.286284,-0.011737 -0.01174,-0.6044414 q 0.181919,-0.404917 0.557494,-0.7863606 0.381444,-0.387312 1.009359,-0.8215709 0.569231,-0.3990487 0.827439,-0.727677 0.258208,-0.3286284 0.258208,-0.6689934 0,-0.3638385 -0.211261,-0.580968 -0.205393,-0.2229978 -0.639652,-0.2229978 -0.399048,0 -0.657256,0.2171295 -0.258208,0.211261 -0.305155,0.6103097 l -0.780492,-0.046947 q 0.07629,-0.6279148 0.545757,-1.0152268 0.475338,-0.387312 1.232357,-0.387312 0.745282,0 1.179541,0.3638385 0.440127,0.3579702 0.440127,1.0034902 0,0.8626493 -1.103252,1.6724835 -0.715941,0.5281526 -1.009359,0.7980974 -0.293418,0.2699447 -0.410785,0.534021 h 2.599685 v 0.663125 z"
         style="font-size:12.01840782px;baseline-shift:super;stroke-width:0.26458332px"
         id="path2622" />
    </g>
  </g>
</svg>
