<?xml version="1.0" encoding="UTF-8" standalone="no"?>
<svg
   xmlns:dc="http://purl.org/dc/elements/1.1/"
   xmlns:cc="http://creativecommons.org/ns#"
   xmlns:rdf="http://www.w3.org/1999/02/22-rdf-syntax-ns#"
   xmlns:svg="http://www.w3.org/2000/svg"
   xmlns="http://www.w3.org/2000/svg"
   width="20mm"
   height="20mm"
   viewBox="0 0 20 20"
   version="1.1"
   id="svg9327">
  <defs
     id="defs9321" />
  <metadata
     id="metadata9324">
    <rdf:RDF>
      <cc:Work
         rdf:about="">
        <dc:format>image/svg+xml</dc:format>
        <dc:type
           rdf:resource="http://purl.org/dc/dcmitype/StillImage" />
        <dc:title></dc:title>
      </cc:Work>
    </rdf:RDF>
  </metadata>
  <rect
     y="1.4838438e-06"
     x="3.4524194e-18"
     height="20"
     width="20"
     id="rect4491"
     style="opacity:1;fill:#ffffff;fill-opacity:1;stroke:none;stroke-width:0.26458332;stroke-miterlimit:4;stroke-dasharray:none;stroke-dashoffset:0;stroke-opacity:1" />
  <g
     id="text991"
     aria-label="xn">
    <g
       aria-label="x3"
       id="text826">
      <path
         d="M 7.2294766,17.388279 5.3425723,13.379736 1.9118372,17.388279 H 0.11521534 L 4.5571145,12.368572 2.1736564,7.6197121 H 3.8799957 L 5.6224481,11.420605 8.7823357,7.6197121 h 1.8598193 l -4.2342492,4.7308029 2.5369384,5.037764 z"
         id="path2605" />
      <path
         d="m 16.256373,7.709543 q 0,1.1443308 -0.727677,1.7722457 -0.727677,0.6279153 -2.0774,0.6279153 -1.25583,0 -2.006981,-0.5633633 -0.745282,-0.5692313 -0.886122,-1.6783519 l 1.091515,-0.099762 q 0.211261,1.4670908 1.801588,1.4670908 0.798097,0 1.249961,-0.3931803 0.457732,-0.3931803 0.457732,-1.1678043 0,-0.6748618 -0.522284,-1.050437 Q 14.120289,6.2424522 13.140272,6.2424522 H 12.541699 V 5.3269875 h 0.5751 q 0.868518,0 1.343855,-0.3755752 0.481206,-0.3814436 0.481206,-1.050437 0,-0.6631251 -0.39318,-1.0445687 -0.387312,-0.3873119 -1.156068,-0.3873119 -0.698335,0 -1.132594,0.3579701 -0.428391,0.3579702 -0.498811,1.0093585 l -1.062174,-0.082157 q 0.117368,-1.0152268 0.839176,-1.5844581 0.727677,-0.5692312 1.86614,-0.5692312 1.244093,0 1.930691,0.580968 0.692467,0.5750996 0.692467,1.6079315 0,0.792229 -0.445996,1.2910399 -0.440127,0.4929425 -1.285171,0.6689934 v 0.023473 q 0.927201,0.099762 1.443617,0.6220465 0.516416,0.5222844 0.516416,1.3145134 z"
         style="font-size:12.01840782px;baseline-shift:super;stroke-width:0.26458332px"
         id="path2607" />
    </g>
  </g>
</svg>
