<?xml version="1.0" encoding="UTF-8" standalone="no"?>
<svg
   xmlns:dc="http://purl.org/dc/elements/1.1/"
   xmlns:cc="http://creativecommons.org/ns#"
   xmlns:rdf="http://www.w3.org/1999/02/22-rdf-syntax-ns#"
   xmlns:svg="http://www.w3.org/2000/svg"
   xmlns="http://www.w3.org/2000/svg"
   width="20mm"
   height="20mm"
   viewBox="0 0 20 20"
   version="1.1"
   id="svg9327">
  <defs
     id="defs9321" />
  <metadata
     id="metadata9324">
    <rdf:RDF>
      <cc:Work
         rdf:about="">
        <dc:format>image/svg+xml</dc:format>
        <dc:type
           rdf:resource="http://purl.org/dc/dcmitype/StillImage" />
        <dc:title></dc:title>
      </cc:Work>
    </rdf:RDF>
  </metadata>
  <rect
     y="1.4838438e-06"
     x="3.4524194e-18"
     height="20"
     width="20"
     id="rect4491"
     style="opacity:1;fill:#ffffff;fill-opacity:1;stroke:none;stroke-width:0.26458332;stroke-miterlimit:4;stroke-dasharray:none;stroke-dashoffset:0;stroke-opacity:1" />
  <g
     id="text991"
     aria-label="xn">
    <g
       aria-label="x⅓"
       id="text826">
      <path
         d="M 7.2294766,17.388279 5.3425723,13.379736 1.9118372,17.388279 H 0.11521534 L 4.5571145,12.368572 2.1736564,7.6197121 H 3.8799957 L 5.6224481,11.420605 8.7823357,7.6197121 h 1.8598193 l -4.2342492,4.7308029 2.5369384,5.037764 z"
         id="path2615" />
      <path
         d="m 10.45843,6.6884481 0.117368,-0.6279149 h 1.238224 l 0.692467,-3.5738329 -1.343855,0.8098341 0.152577,-0.7687555 1.390802,-0.8039657 h 0.721809 l -0.845044,4.33672 h 1.261698 L 13.72124,6.6884481 Z m 1.807456,3.3038882 h -0.897859 l 6.748617,-8.2685231 h 0.903728 z M 17.359625,7.140312 h 0.334497 q 0.569231,0 0.874386,-0.2406029 0.305155,-0.2464712 0.305155,-0.6689933 0,-0.2816814 -0.193656,-0.4636007 -0.193656,-0.1877876 -0.528153,-0.1877876 -0.399049,0 -0.686599,0.2053927 -0.281681,0.2053927 -0.39318,0.5868363 L 16.33853,6.2248474 q 0.39318,-1.2675663 1.872008,-1.2675663 0.651388,0 1.062173,0.3344966 0.410786,0.3286283 0.410786,0.856781 0,1.0504369 -1.279304,1.3086449 v 0.011737 q 0.428391,0.076289 0.692467,0.3579701 0.264077,0.2758131 0.264077,0.6748617 0,0.7100719 -0.522285,1.1384624 -0.522284,0.4225225 -1.373197,0.4225225 -1.531642,0 -1.742903,-1.3731973 l 0.757019,-0.093894 q 0.05281,0.4225222 0.316891,0.6396516 0.269945,0.2171294 0.704204,0.2171294 0.504679,0 0.780492,-0.258208 0.281681,-0.2640763 0.281681,-0.7100718 0,-0.3168916 -0.258208,-0.5105476 -0.258208,-0.193656 -0.710072,-0.193656 h -0.35797 z"
         style="font-size:64.99999762%;baseline-shift:super"
         id="path2617" />
    </g>
  </g>
</svg>
