<?xml version="1.0" encoding="UTF-8" standalone="no"?>
<svg
   xmlns:dc="http://purl.org/dc/elements/1.1/"
   xmlns:cc="http://creativecommons.org/ns#"
   xmlns:rdf="http://www.w3.org/1999/02/22-rdf-syntax-ns#"
   xmlns:svg="http://www.w3.org/2000/svg"
   xmlns="http://www.w3.org/2000/svg"
   width="20mm"
   height="20mm"
   viewBox="0 0 20 20"
   version="1.1"
   id="svg9327">
  <defs
     id="defs9321" />
  <metadata
     id="metadata9324">
    <rdf:RDF>
      <cc:Work
         rdf:about="">
        <dc:format>image/svg+xml</dc:format>
        <dc:type
           rdf:resource="http://purl.org/dc/dcmitype/StillImage" />
        <dc:title></dc:title>
      </cc:Work>
    </rdf:RDF>
  </metadata>
  <rect
     y="1.4838438e-06"
     x="3.4524194e-18"
     height="20"
     width="20"
     id="rect4491"
     style="opacity:1;fill:#ffffff;fill-opacity:1;stroke:none;stroke-width:0.26458332;stroke-miterlimit:4;stroke-dasharray:none;stroke-dashoffset:0;stroke-opacity:1" />
  <g
     id="text991"
     aria-label="xn">
    <g
       aria-label="x2"
       id="text826">
      <path
         d="M 7.2294766,17.388279 5.3425723,13.379736 1.9118372,17.388279 H 0.11521534 L 4.5571145,12.368572 2.1736564,7.6197121 H 3.8799957 L 5.6224481,11.420605 8.7823357,7.6197121 h 1.8598193 l -4.2342492,4.7308029 2.5369384,5.037764 z"
         id="path2610" />
      <path
         d="M 10.704902,9.9923363 V 9.2470541 q 0.299286,-0.6865984 0.727677,-1.2088828 0.434259,-0.5281527 0.909596,-0.9506748 0.475337,-0.4283905 0.938938,-0.792229 0.469469,-0.3638386 0.845044,-0.7276771 0.375576,-0.3638385 0.604442,-0.7628872 0.234734,-0.3990487 0.234734,-0.9037279 0,-0.6807302 -0.399048,-1.0563054 -0.399049,-0.3755752 -1.109121,-0.3755752 -0.674862,0 -1.114989,0.3697068 -0.434259,0.3638386 -0.510548,1.0269636 l -1.079778,-0.099762 q 0.117367,-0.9917534 0.839175,-1.5785897 0.727678,-0.5868363 1.86614,-0.5868363 1.249961,0 1.918955,0.5927047 0.674862,0.5868363 0.674862,1.6724835 0,0.4812058 -0.222998,0.9565432 -0.21713,0.4753374 -0.651389,0.9506748 -0.434258,0.4753375 -1.660746,1.4729592 -0.674862,0.5516261 -1.073911,0.9976217 -0.399049,0.4401273 -0.575099,0.8509127 h 4.313247 v 0.8978596 z"
         style="font-size:12.01840782px;baseline-shift:super;stroke-width:0.26458332px"
         id="path2612" />
    </g>
  </g>
</svg>
