<?xml version="1.0" encoding="UTF-8" standalone="no"?>
<svg
   xmlns:dc="http://purl.org/dc/elements/1.1/"
   xmlns:cc="http://creativecommons.org/ns#"
   xmlns:rdf="http://www.w3.org/1999/02/22-rdf-syntax-ns#"
   xmlns:svg="http://www.w3.org/2000/svg"
   xmlns="http://www.w3.org/2000/svg"
   id="svg4497"
   version="1.1"
   viewBox="0 0 20 20"
   height="20mm"
   width="20mm">
  <defs
     id="defs4491" />
  <metadata
     id="metadata4494">
    <rdf:RDF>
      <cc:Work
         rdf:about="">
        <dc:format>image/svg+xml</dc:format>
        <dc:type
           rdf:resource="http://purl.org/dc/dcmitype/StillImage" />
        <dc:title></dc:title>
      </cc:Work>
    </rdf:RDF>
  </metadata>
  <g
     transform="translate(0,-277)"
     id="layer1">
    <rect
       y="277"
       x="0"
       height="20"
       width="20"
       id="rect4491"
       style="opacity:1;fill:#ffffff;fill-opacity:1;stroke:none;stroke-width:0.26458332;stroke-miterlimit:4;stroke-dasharray:none;stroke-dashoffset:0;stroke-opacity:1" />
    <path
       id="path4395"
       class="ColorScheme-Text"
       d="m 9.921931,280.19896 c -1.2887544,0 -2.4873542,0.3712 -3.5231504,0.98067 l 0.6537802,0.65378 0.2179296,0.21789 2.2519103,2.25191 0.8353893,-0.83539 -1.8886998,-1.88871 c 0.2270229,-0.0593 0.4531277,-0.11333 0.6901002,-0.1454 0.060929,-0.009 0.1200568,-0.0307 0.1816007,-0.0351 0.1953504,-0.022 0.3805533,-0.0351 0.5811399,-0.0351 3.20954,0 5.811385,2.60184 5.811385,5.8114 0,0.28246 -0.03294,0.5643 -0.07266,0.83539 -0.02328,0.15814 -0.0369,0.31805 -0.07266,0.47218 -0.07779,0.33298 -0.193681,0.63649 -0.326872,0.94434 -0.01538,0.0351 -0.02021,0.0738 -0.03646,0.10891 -0.04762,0.10677 -0.125812,0.18977 -0.181601,0.29036 -0.0053,0.009 0.0048,0.0264 0,0.0351 l 0.871705,0.83539 c 0.609522,-1.03659 0.980675,-2.23522 0.980675,-3.52395 0,-3.85144 -3.122214,-6.97367 -6.9736608,-6.97367 z m -5.9929903,3.4505 c -0.6095177,1.03579 -0.9806702,2.23444 -0.9806702,3.52317 0,3.85144 3.1222144,6.97366 6.9736605,6.97366 1.288755,0 2.487354,-0.3712 3.523151,-0.98067 l -0.653781,-0.65379 -0.217929,-0.21788 -2.251911,-2.21558 -0.7990647,0.79906 1.8523807,1.88871 c -0.227024,0.0593 -0.453132,0.11333 -0.690106,0.1454 -0.06092,0.009 -0.120056,0.0307 -0.1816,0.0351 -0.19535,0.022 -0.380554,0.0351 -0.58114,0.0351 -0.2005778,0 -0.3857807,-0.0176 -0.5811354,-0.0351 -0.1953504,-0.022 -0.3919746,-0.0351 -0.5811398,-0.0725 -2.6481504,-0.54186 -4.6491055,-2.89406 -4.6491055,-5.70242 0,-0.2886 0.032068,-0.55811 0.072658,-0.83538 0.023282,-0.15815 0.0369,-0.31805 0.072658,-0.47219 0.077797,-0.33297 0.193681,-0.63648 0.3268725,-0.94434 0.014936,-0.0351 0.020646,-0.0738 0.03646,-0.1089 0.047223,-0.10319 0.1262507,-0.19153 0.1816007,-0.29037 v -0.0351 z"
       style="fill:currentColor;fill-opacity:1;stroke:none;stroke-width:0.26458329" />
  </g>
</svg>
