<?xml version="1.0" encoding="UTF-8" standalone="no"?>
<svg
   xmlns:dc="http://purl.org/dc/elements/1.1/"
   xmlns:cc="http://creativecommons.org/ns#"
   xmlns:rdf="http://www.w3.org/1999/02/22-rdf-syntax-ns#"
   xmlns:svg="http://www.w3.org/2000/svg"
   xmlns="http://www.w3.org/2000/svg"
   width="20mm"
   height="20mm"
   viewBox="0 0 20 20"
   version="1.1"
   id="svg9327">
  <defs
     id="defs9321" />
  <metadata
     id="metadata9324">
    <rdf:RDF>
      <cc:Work
         rdf:about="">
        <dc:format>image/svg+xml</dc:format>
        <dc:type
           rdf:resource="http://purl.org/dc/dcmitype/StillImage" />
        <dc:title></dc:title>
      </cc:Work>
    </rdf:RDF>
  </metadata>
  <rect
     y="1.4187561e-06"
     x="3.4524194e-18"
     height="20"
     width="20"
     id="rect4491"
     style="opacity:1;fill:#ffffff;fill-opacity:1;stroke:none;stroke-width:0.26458332;stroke-miterlimit:4;stroke-dasharray:none;stroke-dashoffset:0;stroke-opacity:1" />
  <g
     id="text9777"
     aria-label="F">
    <path
       id="path10432"
       d="M 1.9884156,6.9921111 H 5.5272175 L 5.3907917,7.6949105 H 2.6829468 L 2.327413,9.5139208 H 4.7748087 L 4.6383829,10.21672 H 2.1909872 l -0.5746419,2.947624 h -0.830957 z" />
  </g>
  <g
     transform="translate(0,1.0583333)"
     id="text9781"
     aria-label="|F|">
    <path
       id="path10422"
       d="M 11.542891,0.97482366 V 9.4414899 h -0.7028 V 0.97482366 Z" />
    <path
       id="path10424"
       d="m 14.056432,1.2724799 h 3.538802 L 17.458808,1.9752793 H 14.750964 L 14.39543,3.7942897 h 2.447395 L 16.7064,4.4970891 h -2.447396 l -0.574642,2.9476235 h -0.830957 z" />
    <path
       id="path10426"
       d="M 19.281953,0.97482366 V 9.4414899 H 18.579154 V 0.97482366 Z" />
  </g>
  <g
     transform="translate(0,-1.0583333)"
     id="text9793"
     aria-label="α">
    <path
       id="path10429"
       d="m 15.87544,15.734669 0.0041,-0.954981 q 0.0041,-0.975651 -0.731739,-0.979785 -0.549837,-0.0041 -0.892968,0.454753 -0.429948,0.566373 -0.574642,1.322916 -0.177767,0.909505 0.04547,1.343587 0.231511,0.442351 0.731738,0.442351 0.553972,0 1.021127,-0.880567 z m -0.599447,-2.579688 q 1.289844,-0.02067 1.273307,1.314649 0,0 0.644922,-1.211296 h 0.677995 l -1.335319,2.509408 -0.0124,0.905371 q 0,0.202571 0.111621,0.37207 0.128157,0.198437 0.260449,0.198437 h 0.367936 l -0.124023,0.644922 h -0.458887 q -0.388607,0 -0.669727,-0.347265 -0.132291,-0.173633 -0.136425,-0.537435 -0.268718,0.44235 -0.731739,0.818554 -0.219108,0.173633 -0.810286,0.169499 -0.967383,-0.0083 -1.318783,-0.628385 -0.359668,-0.644922 -0.136425,-1.785938 0.239778,-1.227832 0.868164,-1.785937 0.706933,-0.624251 1.529622,-0.636654 z" />
  </g>
</svg>
