<?xml version="1.0" encoding="UTF-8" standalone="no"?>
<svg
   xmlns:dc="http://purl.org/dc/elements/1.1/"
   xmlns:cc="http://creativecommons.org/ns#"
   xmlns:rdf="http://www.w3.org/1999/02/22-rdf-syntax-ns#"
   xmlns:svg="http://www.w3.org/2000/svg"
   xmlns="http://www.w3.org/2000/svg"
   width="20mm"
   height="20mm"
   viewBox="0 0 20 20"
   version="1.1"
   id="svg9327">
  <defs
     id="defs9321" />
  <metadata
     id="metadata9324">
    <rdf:RDF>
      <cc:Work
         rdf:about="">
        <dc:format>image/svg+xml</dc:format>
        <dc:type
           rdf:resource="http://purl.org/dc/dcmitype/StillImage" />
        <dc:title></dc:title>
      </cc:Work>
    </rdf:RDF>
  </metadata>
  <rect
     y="1.4838438e-06"
     x="3.4524194e-18"
     height="20"
     width="20"
     id="rect4491"
     style="opacity:1;fill:#ffffff;fill-opacity:1;stroke:none;stroke-width:0.26458332;stroke-miterlimit:4;stroke-dasharray:none;stroke-dashoffset:0;stroke-opacity:1" />
  <g
     style="stroke-width:0.23461245"
     id="g3191"
     transform="matrix(1.1277464,0,0,1.1277464,-474.53183,-598.46321)">
    <g
       style="stroke-width:0.23461245"
       id="g3189"
       transform="matrix(0.75,0,0,0.74999813,421.46429,-241.22897)">
      <path
         id="rect4170"
         class="ColorScheme-Text"
         transform="matrix(1.3333333,0,0,1.3333367,0.33333333,1030.6955)"
         d="M 8,3 A 8.9999925,9.0000023 0 0 0 0.12304688,7.6679688 c 0.12894502,0.363749 0.35743875,0.6766037 0.65625,0.9082031 A 7.9999935,8.0000021 0 0 1 8,4 3.9999996,4.0000004 0 0 0 4,8 3.9999996,4.0000004 0 0 0 8,12 3.9999996,4.0000004 0 0 0 12,8 3.9999996,4.0000004 0 0 0 8.3496094,4.0175781 7.9999935,8.0000021 0 0 1 15.220703,8.5761719 C 15.522218,8.3424725 15.752612,8.0260772 15.880859,7.6582031 A 8.9999925,9.0000023 0 0 0 8,3 Z M 8,5 A 2.9999996,3.0000002 0 0 1 11,8 2.9999996,3.0000002 0 0 1 8,11 2.9999996,3.0000002 0 0 1 5,8 2.9999996,3.0000002 0 0 1 8,5 Z M 8,6 A 1.9999999,2.0000003 0 0 0 6,8 1.9999999,2.0000003 0 0 0 8,10 1.9999999,2.0000003 0 0 0 10,8 1.9999999,2.0000003 0 0 0 9.9101562,7.4121094 0.9999999,1 0 0 1 9,8 0.9999999,1 0 0 1 8,7 0.9999999,1 0 0 1 8.5898438,6.0898438 1.9999999,2.0000003 0 0 0 8,6 Z"
         style="fill:currentColor;fill-opacity:1;stroke:none;stroke-width:0.23461245" />
    </g>
  </g>
</svg>
